<?xml version="1.0" encoding="UTF-8" standalone="no"?>
<!-- Created with Inkscape (http://www.inkscape.org/) -->

<svg
   xmlns:dc="http://purl.org/dc/elements/1.1/"
   xmlns:cc="http://creativecommons.org/ns#"
   xmlns:rdf="http://www.w3.org/1999/02/22-rdf-syntax-ns#"
   xmlns:svg="http://www.w3.org/2000/svg"
   xmlns="http://www.w3.org/2000/svg"
   xmlns:sodipodi="http://sodipodi.sourceforge.net/DTD/sodipodi-0.dtd"
   xmlns:inkscape="http://www.inkscape.org/namespaces/inkscape"
   width="100mm"
   height="100mm"
   viewBox="0 0 100 100"
   version="1.1"
   id="svg1386"
   inkscape:version="0.92.3 (2405546, 2018-03-11)"
   sodipodi:docname="TypeScriptCodeDOM.svg">
  <defs
     id="defs1380" />
  <sodipodi:namedview
     id="base"
     pagecolor="#cdffd1"
     bordercolor="#666666"
     borderopacity="1.0"
     inkscape:pageopacity="0"
     inkscape:pageshadow="2"
     inkscape:zoom="1"
     inkscape:cx="409.78765"
     inkscape:cy="-11.501632"
     inkscape:document-units="mm"
     inkscape:current-layer="layer2"
     showgrid="true"
     inkscape:window-width="1817"
     inkscape:window-height="1371"
     inkscape:window-x="508"
     inkscape:window-y="150"
     inkscape:window-maximized="0">
    <inkscape:grid
       type="xygrid"
       id="grid1977" />
  </sodipodi:namedview>
  <metadata
     id="metadata1383">
    <rdf:RDF>
      <cc:Work
         rdf:about="">
        <dc:format>image/svg+xml</dc:format>
        <dc:type
           rdf:resource="http://purl.org/dc/dcmitype/StillImage" />
        <dc:title></dc:title>
      </cc:Work>
    </rdf:RDF>
  </metadata>
  <g
     inkscape:groupmode="layer"
     id="layer2"
     inkscape:label="Layer 2">
    <rect
       transform="translate(0,-197)"
       style="fill:#ffeeaa;fill-opacity:1;stroke:#ffffff;stroke-width:0.26458332;stroke-opacity:1"
       id="rect1979"
       width="99.21875"
       height="99.21875"
       x="0"
       y="197.78125" />
  </g>
  <g
     inkscape:label="Layer 1"
     inkscape:groupmode="layer"
     id="layer1"
     transform="translate(0,-197)">
    <path
       style="fill:#782121;fill-opacity:1;stroke:#000069;stroke-width:0.08467437;stroke-opacity:0"
       d="m 10.292314,220.38072 c 0.02904,1.1087 -0.05719,2.26514 0.04234,3.34464 1.108698,-0.029 2.265138,0.0572 3.34464,-0.0423 -0.02904,-1.10869 0.05719,-2.26514 -0.04233,-3.34464 -1.108017,0.0287 -2.266104,-0.0569 -3.34464,0.0423 z"
       id="path3066"
       inkscape:connector-curvature="0" />
    <path
       style="fill:#782121;fill-opacity:1;stroke:#000069;stroke-width:0.08467437;stroke-opacity:0"
       d="m 19.521823,199.46615 c 0,8.07229 0,16.14459 0,24.21688 0.96696,0.0987 2.009895,0.0139 3.00594,0.0422 0.09881,-1.47494 0.0141,-3.0259 0.04234,-4.53008 0.01376,-4.83071 -0.03488,-9.66285 0.06616,-14.49255 0.254774,0.21627 0.340918,0.57786 0.534508,0.81235 0.196329,0.1472 0.238177,0.48016 0.471001,0.62976 0.125849,0.1368 0.103907,0.35793 0.277838,0.4366 -0.02255,0.19987 0.23365,0.19785 0.203747,0.40485 0.221355,0.0639 0.1392,0.33506 0.351929,0.45777 0.261307,0.1912 0.284101,0.58434 0.54509,0.73297 0.0452,0.27793 0.311632,0.46035 0.40485,0.70914 0.192812,0.0598 0.0872,0.3937 0.328112,0.46043 0.158962,0.20544 0.20832,0.47697 0.433957,0.65092 0.358915,0.56922 0.782099,1.11987 1.124582,1.68556 -0.003,0.18788 0.227163,0.18813 0.203748,0.38897 0.188774,0.0371 0.09331,0.29052 0.285777,0.32283 -0.01907,0.21443 0.251286,0.22473 0.201099,0.44982 0.113742,0.15918 0.344008,0.21125 0.375743,0.45513 0.25778,0.28349 0.384153,0.68353 0.674749,0.93936 0.03775,0.11417 0.08492,0.24131 0.201103,0.30164 -0.02459,0.19385 0.228372,0.19854 0.193162,0.40221 0.12238,0.20955 0.334383,0.34851 0.37045,0.59537 0.110043,0.0787 0.251627,0.0552 0.251377,0.24078 0.270874,0.38339 0.421169,0.83301 0.777947,1.14047 0.03101,0.31058 0.397047,0.43226 0.404848,0.74883 0.177409,0.0382 0.08598,0.2854 0.275192,0.31489 -0.01521,0.15115 0.116883,0.20978 0.187872,0.29107 0.200086,0.43056 0.598482,0.78737 0.801759,1.23836 0.121802,0.20588 0.31615,0.31218 0.354576,0.54244 0.19837,0.0665 0.09036,0.39645 0.333405,0.46836 0.15896,0.20544 0.208318,0.47697 0.433956,0.65094 0.358915,0.5692 0.782097,1.11986 1.124581,1.68555 -0.003,0.18788 0.227163,0.18813 0.203748,0.38897 0.218823,0.0711 0.17255,0.44135 0.476293,0.42601 1.025356,0.0974 2.059294,0.0294 3.087969,0.0503 0.09881,-1.47493 0.0141,-3.0259 0.04234,-4.53007 0,-6.57637 0,-13.15275 0,-19.72913 -0.938662,-0.0988 -1.95337,-0.0141 -2.921265,-0.0423 -0.09995,1.47493 -0.0166,3.02589 -0.04605,4.53007 -0.0159,4.81947 0.02297,9.67979 -0.0545,14.47403 -0.237008,0.03 -0.149328,-0.24872 -0.325466,-0.29107 -0.04229,-0.11633 -0.08827,-0.23698 -0.203748,-0.29901 0.01052,-0.19965 -0.230507,-0.21115 -0.211687,-0.42337 -0.439439,-0.50807 -0.757599,-1.09514 -1.161627,-1.62733 -0.112279,-0.0734 -0.07743,-0.26997 -0.232854,-0.31754 7.37e-4,-0.32058 -0.390255,-0.44113 -0.391619,-0.75941 -0.20531,-0.0785 -0.213126,-0.36811 -0.412787,-0.49747 -0.329179,-0.46532 -0.587191,-0.96776 -0.949942,-1.40242 -0.02797,-0.135 -0.08578,-0.24117 -0.195807,-0.30694 0.02255,-0.19986 -0.233651,-0.19786 -0.203748,-0.40485 -0.187741,-0.0487 -0.111457,-0.28729 -0.293716,-0.34134 0.02749,-0.32588 -0.362011,-0.3777 -0.44991,-0.675 -0.232987,-0.43435 -0.572513,-0.82242 -0.783159,-1.26193 -0.268945,-0.1478 -0.215008,-0.50698 -0.497464,-0.65094 -0.078,-0.17438 -0.118082,-0.34795 -0.288421,-0.46306 -0.281951,-0.43174 -0.602152,-0.86982 -0.873204,-1.28864 0.0091,-0.19982 -0.226974,-0.20051 -0.206392,-0.40485 -0.188777,-0.0371 -0.09333,-0.29051 -0.285778,-0.32282 0.02071,-0.21351 -0.248546,-0.2223 -0.201101,-0.44454 -0.07526,-0.17707 -0.332719,-0.14464 -0.336052,-0.38897 -0.306611,-0.43271 -0.590992,-0.94059 -0.918187,-1.33098 0.01091,-0.18568 -0.22717,-0.18386 -0.190518,-0.38368 -0.12448,-0.2144 -0.347178,-0.35427 -0.370451,-0.61388 -0.173179,-0.0355 -0.0809,-0.27331 -0.261959,-0.31224 -0.327954,-0.41738 -0.588177,-0.89689 -0.88379,-1.32833 -0.133329,-0.0256 -0.04552,-0.27593 -0.224915,-0.27784 0.02483,-0.20863 -0.23181,-0.21342 -0.206395,-0.41543 -0.156898,-0.0603 -0.131621,-0.20323 -0.227563,-0.31488 -0.17864,-0.0429 -0.114995,-0.34092 -0.314882,-0.42867 -0.322509,-0.28415 -0.392404,-0.85458 -0.759423,-1.02667 -1.049219,0.0281 -2.147649,-0.0562 -3.167352,0.0423 z"
       id="path3068"
       inkscape:connector-curvature="0" />
    <path
       style="fill:#782121;fill-opacity:1;stroke:#000069;stroke-width:0.08467437;stroke-opacity:0"
       d="m 43.31532,199.55083 c 0,8.07228 0,16.14457 0,24.21686 1.474946,0.0988 3.025906,0.014 4.53008,0.0423 4.54419,0 9.088382,0 13.632572,0 0.09866,-0.91052 0.01389,-1.89701 0.04233,-2.8366 -1.474942,-0.0988 -3.025903,-0.0141 -4.530076,-0.0422 -3.514869,0 -7.029737,0 -10.544604,0 0.01638,-2.75192 0.03137,-5.50383 0.04499,-8.25577 4.459515,-0.0141 8.919032,-0.0282 13.378548,-0.0422 0.09866,-0.9105 0.01389,-1.89699 0.04233,-2.8366 -1.474946,-0.0988 -3.025905,-0.014 -4.530079,-0.0422 -2.977717,0 -5.955429,0 -8.933146,0 0,-2.45556 0,-4.9111 0,-7.36666 4.7841,0 9.568203,0 14.352307,0 0.09866,-0.91052 0.01389,-1.89701 0.04232,-2.8366 -1.474945,-0.0988 -3.025904,-0.0141 -4.53008,-0.0422 -4.318392,0 -8.636787,0 -12.955179,0 z"
       id="path3070"
       inkscape:connector-curvature="0" />
    <path
       style="fill:#782121;fill-opacity:1;stroke:#000069;stroke-width:0.08467437;stroke-opacity:0"
       d="m 64.737935,199.46615 c 0.02925,0.93925 -0.05749,1.92655 0.04233,2.83659 2.695469,0 5.390938,0 8.086401,0 0,7.12675 0,14.25353 0,21.38029 0.995116,0.0988 2.066269,0.0141 3.090619,0.0422 0.09881,-1.47494 0.01408,-3.0259 0.04233,-4.53008 0,-5.63085 0,-11.26169 0,-16.89254 2.695463,0 5.390932,0 8.086403,0 0.09865,-0.91051 0.01384,-1.897 0.04229,-2.83659 -1.474944,-0.0988 -3.025912,-0.0141 -4.530083,-0.0423 -4.939338,0 -9.878679,0 -14.818019,0 z"
       id="path3072"
       inkscape:connector-curvature="0" />
    <path
       inkscape:connector-curvature="0"
       class="st0"
       d="m 15.369457,273.42998 h -4.750981 v 14.71647 H 8.6775269 V 273.42998 H 3.9555156 v -1.73816 H 15.369457 Z"
       id="path4"
       style="fill:#0000ff;stroke-width:0.28969404" />
    <path
       inkscape:connector-curvature="0"
       class="st0"
       d="m 24.321004,276.38486 -5.417279,13.64459 c -0.95599,2.43343 -2.317553,3.65015 -4.055716,3.65015 -0.49248,0 -0.898052,-0.0579 -1.216715,-0.14485 v -1.68023 c 0.405571,0.14486 0.782174,0.20279 1.100837,0.20279 0.95599,0 1.651256,-0.57938 2.143736,-1.70919 l 0.92702,-2.23065 -4.577165,-11.73261 h 2.085797 l 3.186634,9.03845 c 0.02897,0.11589 0.115879,0.40558 0.231756,0.89806 h 0.05794 c 0.02897,-0.17382 0.115878,-0.46351 0.231755,-0.86908 l 3.331482,-9.06743 z m 3.070758,10.05239 h -0.05794 v 7.0975 h -1.883015 v -17.14989 h 1.883012 v 2.05684 h 0.05794 c 0.92702,-1.56435 2.288582,-2.34653 4.055716,-2.34653 1.506409,0 2.694154,0.52145 3.534268,1.56435 0.840113,1.0429 1.274654,2.4624 1.274654,4.22953 0,1.96992 -0.492481,3.53426 -1.448471,4.72202 -0.95599,1.18774 -2.259614,1.76712 -3.91087,1.76712 -1.477439,0.0579 -2.665185,-0.60835 -3.505297,-1.94094 z m -0.02897,-4.72201 v 1.65125 c 0,0.98496 0.318664,1.7961 0.955991,2.4624 0.637327,0.66629 1.419501,1.01393 2.404461,1.01393 1.129807,0 2.027858,-0.43454 2.694155,-1.30362 0.637326,-0.86908 0.95599,-2.0858 0.95599,-3.65015 0,-1.30363 -0.289694,-2.34652 -0.898051,-3.07076 -0.608358,-0.7532 -1.419502,-1.10083 -2.462401,-1.10083 -1.100836,0 -1.969918,0.3766 -2.636215,1.1298 -0.695266,0.75321 -1.01393,1.70919 -1.01393,2.86798 z m 20.423431,1.01392 h -8.285249 c 0.02897,1.30362 0.376602,2.31756 1.042898,3.04179 0.666297,0.72423 1.593317,1.07187 2.781063,1.07187 1.332593,0 2.549308,-0.43454 3.650145,-1.30362 v 1.76713 c -1.042898,0.7532 -2.404461,1.12981 -4.084686,1.12981 -1.651256,0 -2.954879,-0.52145 -3.91087,-1.59332 -0.95599,-1.07187 -1.4195,-2.57828 -1.4195,-4.49026 0,-1.82507 0.521449,-3.33148 1.564348,-4.46128 1.042898,-1.15879 2.317552,-1.73817 3.85293,-1.73817 1.535379,0 2.723124,0.49248 3.563237,1.50641 0.840114,0.98495 1.274655,2.37548 1.274655,4.14262 z m -1.940948,-1.59331 c 0,-1.10085 -0.260725,-1.94096 -0.782174,-2.54931 -0.52145,-0.60836 -1.245684,-0.89805 -2.143737,-0.89805 -0.898051,0 -1.651256,0.31866 -2.259613,0.95598 -0.608358,0.63734 -1.013929,1.47745 -1.158776,2.49138 z m 2.867971,6.4312 v -1.30361 c 1.187746,0.75319 2.375491,1.1298 3.592206,1.1298 1.274654,0 2.259614,-0.26072 2.92591,-0.81114 0.666297,-0.55042 0.98496,-1.27466 0.98496,-2.23065 0,-0.84012 -0.231755,-1.50641 -0.666296,-2.02786 -0.434541,-0.49248 -1.419502,-1.18774 -2.896941,-2.05683 -1.680225,-0.98495 -2.723124,-1.7961 -3.157665,-2.43343 -0.434541,-0.66629 -0.666297,-1.4195 -0.666297,-2.25961 0,-1.15877 0.463511,-2.14374 1.361563,-2.95488 0.898051,-0.81114 2.114766,-1.21672 3.621176,-1.21672 0.984959,0 1.969919,0.17382 2.925909,0.49248 v 1.18775 c -0.95599,-0.43454 -1.998889,-0.6663 -3.099726,-0.6663 -1.129807,0 -1.998889,0.2897 -2.665185,0.84011 -0.666297,0.5794 -0.98496,1.27466 -0.98496,2.14374 0,0.84011 0.231755,1.50641 0.666296,1.9989 0.434541,0.49248 1.419501,1.18774 2.896941,2.02785 1.535378,0.86908 2.549307,1.65125 3.070757,2.31756 0.521449,0.66629 0.753205,1.44846 0.753205,2.34651 0,1.27466 -0.434541,2.28859 -1.303624,3.09973 -0.869082,0.81115 -2.114767,1.18774 -3.708084,1.18774 -0.579388,0 -1.216715,-0.0869 -1.96992,-0.26072 -0.753204,-0.17381 -1.303623,-0.31866 -1.680225,-0.55042 z m 18.453511,0.0579 c -0.869082,0.52145 -1.911981,0.81114 -3.128696,0.81114 -1.593317,0 -2.89694,-0.55042 -3.881899,-1.65125 -0.984961,-1.10084 -1.47744,-2.52034 -1.47744,-4.31645 0,-1.85404 0.550418,-3.38941 1.651256,-4.57716 1.100837,-1.18774 2.520338,-1.7961 4.258503,-1.7961 0.898051,0 1.767133,0.17381 2.607246,0.55042 v 1.18774 c -0.840113,-0.52145 -1.767134,-0.78217 -2.752094,-0.78217 -1.390531,0 -2.491369,0.49248 -3.360451,1.47744 -0.869082,0.98495 -1.274653,2.28858 -1.274653,3.85293 0,1.53538 0.405571,2.75209 1.187745,3.67912 0.782174,0.92701 1.825072,1.39053 3.099726,1.39053 1.187746,0 2.201675,-0.31866 3.070757,-0.92703 z m 7.010597,-10.13927 c -0.347633,-0.26072 -0.753205,-0.3766 -1.245684,-0.3766 -0.927022,0 -1.709196,0.49247 -2.317553,1.44847 -0.637327,0.95598 -0.927022,2.31756 -0.927022,4.08468 v 5.53317 h -1.0429 v -11.79054 h 1.042898 v 2.60725 h 0.05794 c 0.260725,-0.89805 0.695266,-1.59331 1.274654,-2.0858 0.579387,-0.49248 1.245684,-0.7532 2.027858,-0.7532 0.434541,0 0.840113,0.0579 1.158776,0.20279 v 1.1298 z m 1.680225,-4.05572 c -0.231755,0 -0.434541,-0.0869 -0.608358,-0.26072 -0.173816,-0.17382 -0.260724,-0.3766 -0.260724,-0.63732 0,-0.26073 0.0869,-0.46352 0.260724,-0.60837 0.173817,-0.14484 0.376603,-0.23175 0.608358,-0.23175 0.231755,0 0.434541,0.0869 0.637328,0.23175 0.173816,0.14485 0.260724,0.34764 0.260724,0.60837 0,0.23175 -0.0869,0.4635 -0.260724,0.63732 -0.202787,0.17382 -0.405573,0.26072 -0.637328,0.26072 z m -0.521451,14.71649 v -11.76159 h 1.042898 v 11.76159 z m 4.664074,-2.0858 h -0.05794 v 7.50308 h -1.042901 v -17.17887 h 1.042899 v 2.43343 h 0.05794 c 0.434541,-0.86908 1.01393,-1.53538 1.796104,-1.99888 0.782174,-0.46351 1.651256,-0.69527 2.578276,-0.69527 1.50641,0 2.665186,0.52145 3.505299,1.53538 0.840112,1.0429 1.245684,2.43343 1.245684,4.20056 0,1.96993 -0.49248,3.56323 -1.448471,4.77995 -0.95599,1.21671 -2.230643,1.82508 -3.794991,1.82508 -1.738164,-0.029 -3.041788,-0.81114 -3.881901,-2.40446 z m -0.05794,-4.37438 v 1.47743 c 0,1.18775 0.376603,2.20168 1.100838,3.04179 0.753205,0.84011 1.709195,1.27466 2.92591,1.27466 1.187745,0 2.172705,-0.52145 2.925909,-1.53539 0.753205,-1.0429 1.129807,-2.37548 1.129807,-4.05571 0,-1.47744 -0.347633,-2.63621 -1.042899,-3.5053 -0.695265,-0.86908 -1.593317,-1.30363 -2.752092,-1.30363 -1.361563,0 -2.43343,0.46352 -3.186635,1.39054 -0.753205,0.92702 -1.100838,1.96992 -1.100838,3.21561 z m 15.585542,6.28636 c -0.550417,0.26072 -1.071874,0.3766 -1.53538,0.3766 -1.738164,0 -2.607247,-1.0429 -2.607247,-3.12869 v -7.85071 h -2.114766 v -0.956 h 2.114766 v -3.07075 l 0.52145,-0.17382 0.521449,-0.17382 v 3.41839 h 3.099728 v 0.956 h -3.099725 v 7.76379 c 0,0.81114 0.115878,1.39053 0.376602,1.76714 0.260725,0.3766 0.695266,0.55042 1.303627,0.55042 0.434535,0 0.89805,-0.14485 1.419496,-0.43455 z"
       id="path6"
       style="fill:#0000ff;stroke-width:0.28969404" />
    <path
       inkscape:connector-curvature="0"
       style="fill:#008000;stroke-width:1.28984368"
       d="m 59.266672,257.04793 -1.818677,-1.81871 -7.210227,7.19735 v -15.6974 h -2.57969 v 15.6974 l -7.197327,-7.21022 -1.831576,1.83158 10.31875,10.31872 z"
       id="path4-5" />
    <text
       xml:space="preserve"
       style="font-style:normal;font-variant:normal;font-weight:normal;font-stretch:normal;font-size:16.93333244px;line-height:1.25;font-family:sans-serif;-inkscape-font-specification:'sans-serif, Normal';font-variant-ligatures:normal;font-variant-caps:normal;font-variant-numeric:normal;font-feature-settings:normal;text-align:start;letter-spacing:0px;word-spacing:0px;writing-mode:lr-tb;text-anchor:start;fill:#554400;fill-opacity:1;stroke:none;stroke-width:0.26458332"
       x="5.8208332"
       y="245.40625"
       id="text1971"><tspan
         sodipodi:role="line"
         id="tspan1969"
         x="5.8208332"
         y="245.40625"
         style="font-style:normal;font-variant:normal;font-weight:normal;font-stretch:normal;font-size:16.93333244px;font-family:sans-serif;-inkscape-font-specification:'sans-serif, Normal';font-variant-ligatures:normal;font-variant-caps:normal;font-variant-numeric:normal;font-feature-settings:normal;text-align:start;writing-mode:lr-tb;text-anchor:start;fill:#554400;stroke-width:0.26458332">Code</tspan></text>
    <text
       xml:space="preserve"
       style="font-style:normal;font-variant:normal;font-weight:normal;font-stretch:normal;font-size:16.93333244px;line-height:1.25;font-family:sans-serif;-inkscape-font-specification:'sans-serif, Normal';font-variant-ligatures:normal;font-variant-caps:normal;font-variant-numeric:normal;font-feature-settings:normal;text-align:start;letter-spacing:0px;word-spacing:0px;writing-mode:lr-tb;text-anchor:start;fill:#554400;fill-opacity:1;stroke:none;stroke-width:0.26458332"
       x="48.947914"
       y="245.67085"
       id="text1975"><tspan
         sodipodi:role="line"
         id="tspan1973"
         x="48.947914"
         y="245.67085"
         style="font-style:normal;font-variant:normal;font-weight:normal;font-stretch:normal;font-size:16.93333244px;font-family:sans-serif;-inkscape-font-specification:'sans-serif, Normal';font-variant-ligatures:normal;font-variant-caps:normal;font-variant-numeric:normal;font-feature-settings:normal;text-align:start;writing-mode:lr-tb;text-anchor:start;fill:#554400;stroke-width:0.26458332">DOM</tspan></text>
  </g>
</svg>
